<svg width="1200" height="1200" viewBox="0 0 1200 1200" fill="none" xmlns="http://www.w3.org/2000/svg">
<path d="M671.976 247.145C868.732 247.145 1005.25 460.37 1005.25 686.526C998.898 820.38 965.148 929.283 899.823 997.378L899.822 997.383C897.547 1000.35 895.717 1002.66 893.826 1004.86C891.934 1007.05 890.546 1008.55 888.829 1010.34C887.112 1012.12 886.088 1013.07 884.332 1014.82C882.576 1016.57 880.942 1018.12 878.836 1020.3C876.73 1022.48 875.193 1024.26 872.84 1026.77C870.486 1029.29 867.425 1032.59 864.346 1035.74C861.266 1038.9 858.694 1040.95 856.351 1043.71C854.008 1046.48 852.711 1048.07 850.855 1051.18C848.999 1054.29 848.318 1056.44 846.857 1059.65C845.397 1062.87 844.654 1064.22 843.36 1067.62C842.066 1071.02 841.718 1073.46 840.362 1077.09C839.005 1080.72 837.358 1085.2 835.365 1088.28C833.373 1091.36 831.491 1093.72 829.369 1095.52C827.248 1097.32 825.93 1098.28 823.373 1099.39C820.817 1100.49 816.265 1101.26 812.881 1101.13C809.496 1101 807.643 1100.31 804.386 1099.39C801.129 1098.46 793.822 1094.84 789.896 1093.03C785.971 1091.22 783.233 1089.9 779.903 1088.28C776.573 1086.66 774.802 1085.26 771.409 1084.06C768.015 1082.87 765.989 1082.48 762.415 1082.07C758.84 1081.66 756.322 1082.19 752.422 1082.07C748.521 1081.95 743.811 1081.47 738.931 1081.07C734.05 1080.68 731.312 1080.47 726.439 1079.98C721.567 1079.5 718.828 1079.11 713.948 1078.58C709.067 1078.06 704.152 1077.68 699.457 1077.09C694.763 1076.5 690.797 1075.96 687.466 1075.36C684.703 1074.86 682.955 1074.5 680.556 1073.97C477.352 1055.05 268.25 800.519 268.25 582.908C268.25 356.752 475.22 247.145 671.976 247.145Z" fill="#F1B534"/>
<path d="M411.222 197.425C439.622 218.625 466.389 262.592 476.222 281.925C460.389 287.759 422.323 303.526 396.723 319.926C364.723 340.426 393.223 322.426 357.223 346.926C321.223 371.426 323.223 374.926 313.223 382.426C303.223 389.926 282.223 414.926 279.723 416.926C277.723 418.926 251.723 449.926 249.723 452.926C248.223 453.926 233.723 474.926 219.723 503.426C205.723 531.926 202.722 547.426 200.223 554.926C197.723 562.426 195.222 580.926 195.222 586.426C195.222 591.926 194.722 609.426 195.222 622.926C195.722 636.426 199.222 648.426 202.722 660.926C206.222 673.426 213.722 684.426 220.222 693.926C226.722 703.426 236.222 712.426 247.222 719.926C256.022 725.926 270.889 727.759 277.222 727.926H296.722C295.889 724.759 294.422 717.426 295.222 713.426C296.222 708.426 328.722 684.926 331.222 682.926C331.722 680.426 377.722 650.926 381.222 646.926C384.722 642.926 422.722 621.926 426.222 619.426C429.722 616.926 462.222 599.426 464.222 597.426C466.222 595.426 504.722 575.926 519.222 569.426C533.722 562.926 569.222 543.426 666.722 511.426C764.222 479.426 793.222 478.426 825.722 471.926C851.722 466.726 904.555 466.426 927.722 466.926C936.722 467.092 955.1 467.9 955.5 469.5C955.9 471.1 958.722 471.759 960.222 471.926C962.722 472.592 970.222 470.226 980.222 455.426C990.222 440.626 981.722 404.259 976.222 387.926C965.555 364.759 933.822 313.226 892.222 292.426C840.222 266.426 841.722 269.426 794.222 256.426C756.222 246.026 707.055 243.092 687.222 242.926C666.555 242.259 615.622 243.226 577.222 252.426C529.222 263.926 531.222 262.426 526.722 261.926C522.222 261.426 524.722 242.426 502.222 202.926C479.722 163.426 476.222 160.926 461.722 139.426C450.122 122.226 430.222 107.925 421.722 102.925C407.555 96.5917 376.822 91.3251 367.222 120.925C355.222 157.925 375.722 170.925 411.222 197.425Z" fill="#BA8323"/>
</svg>