<svg width="30" height="30" viewBox="0 0 30 30" fill="none" xmlns="http://www.w3.org/2000/svg">
<g clip-path="url(#clip0_618_8830)">
<path d="M19.2 24.0952C19.2 26.415 17.3198 28.2952 15 28.2952C12.6803 28.2952 10.8 26.415 10.8 24.0952H19.2Z" fill="#FF9E00"/>
<path d="M12.4673 4.23746C12.4673 2.83871 13.6013 1.70471 15 1.70471C16.3988 1.70471 17.5328 2.83871 17.5328 4.23746H12.468H12.4673Z" fill="#FF9E00"/>
<path d="M4.57794 14.1172C4.57794 8.13144 9.62394 3.32469 15.6937 3.71769C21.2332 4.07619 25.4219 8.92344 25.4219 14.4742V19.0334L27.1949 22.1039C27.7057 22.9889 27.0674 24.0952 26.0452 24.0952H3.95394C2.93244 24.0952 2.29344 22.9889 2.80419 22.1039L4.57719 19.0334L4.57794 14.1172Z" fill="#FFC000"/>
</g>
<defs>
<clipPath id="clip0_618_8830">
<rect width="30" height="30" fill="white"/>
</clipPath>
</defs>
</svg>
