<svg width="500" height="500" viewBox="0 0 500 500" fill="none" xmlns="http://www.w3.org/2000/svg">
<path d="M236.353 21.3963C227.687 24.7297 219.82 30.5963 209.686 41.1297C200.62 50.3297 191.953 62.3297 187.82 70.9963C185.553 75.7963 185.42 75.9297 175.286 76.7297C146.753 79.3963 121.953 88.5963 98.7531 105.263C71.6866 124.596 31.8197 171.663 26.3531 190.596C23.6865 199.396 24.8865 205.93 30.6198 214.996C45.4197 238.596 77.02 256.196 109.953 259.53L118.886 260.33L115.02 267.263C112.886 271.13 110.22 276.996 109.153 280.33L107.02 286.596L98.7531 287.396C94.2198 287.93 85.8197 289.53 80.2198 291.13C42.7534 300.996 22.0866 337.53 45.9531 351.53C49.6864 353.796 52.8865 354.196 65.1531 354.196C73.2864 354.196 84.2198 353.796 89.4198 353.13L99.1531 352.196L97.5531 355.796C96.6198 358.063 95.9531 366.863 95.9531 378.196C95.9531 394.196 96.3531 398.063 99.0198 405.53C100.62 410.33 103.82 416.463 106.086 419.263C108.22 422.063 109.82 424.463 109.686 424.73C109.42 424.863 105.286 426.463 100.486 428.196C90.3532 431.796 83.6864 435.796 77.4198 441.93C64.2199 455.263 64.8865 473.93 78.7531 479.13C83.0197 480.73 100.887 480.863 194.486 480.196L305.153 479.263L318.486 475.796C348.62 467.93 367.02 457.796 385.953 438.996C409.82 414.996 421.82 386.33 421.82 353.263C421.82 336.996 420.22 326.33 415.686 310.33C411.02 294.463 411.553 283.796 417.286 276.73C424.62 267.663 427.153 266.463 441.153 265.53C457.553 264.463 462.886 261.13 469.82 247.663C474.353 238.73 474.486 237.93 474.486 223.663C474.486 205.53 471.42 195.53 461.553 180.863C451.287 165.263 436.886 154.196 418.086 147.13C406.086 142.596 381.42 141.396 368.486 144.73C333.553 153.663 308.353 182.596 299.686 223.396C297.42 233.93 297.153 262.996 299.153 271.53C299.82 274.463 300.086 276.996 299.953 277.263C299.686 277.396 297.42 274.73 294.886 271.263C292.353 267.796 281.42 254.463 270.62 241.796C259.953 229.13 251.153 218.596 251.153 218.33C251.153 218.063 253.42 214.33 256.353 210.063C262.486 200.596 267.686 187.93 269.82 176.596C272.22 164.596 270.886 140.73 267.286 127.396L264.353 116.596L268.353 105.263C277.153 79.9297 281.02 49.263 276.62 37.1297C274.353 30.463 267.686 22.9963 262.22 20.7297C256.22 18.1963 243.686 18.463 236.353 21.3963Z" fill="black"/>
</svg>