<svg width="700" height="700" viewBox="0 0 700 700" fill="none" xmlns="http://www.w3.org/2000/svg">
<path d="M662.755 350.574C645.18 522.486 522.153 645.923 350.418 659.416C176.674 663.912 34.0635 520.985 38.0809 350.574C38.0809 180.005 177.919 41.7321 350.418 41.7321C523.158 35.2328 669.785 178.662 662.755 350.574Z" fill="#E7AC49"/>
<path d="M627.999 335.59C604.499 506.512 482.999 619.012 330.923 631.439C158.999 640.012 23.9982 511.52 37.9986 333.02C50.8218 169.527 176.499 52.5195 330.499 42.0134C507.999 28.5196 641.499 151.015 627.999 335.59Z" fill="#FAD989"/>
<path d="M568.359 321C568.359 452.72 447.602 572.5 310.359 572.5C173.116 572.5 90.8579 463 97.3588 341C104.393 209 207.858 104 345.359 99C482.602 99 568.359 189.28 568.359 321Z" fill="#E7AA46"/>
<path d="M568.356 329.671C568.356 457.635 451.277 574 318.215 574C185.154 574 102.056 487.522 108.358 369C115.431 236 208.358 118.5 352.149 114C485.211 114 568.356 201.706 568.356 329.671Z" fill="#F6C357"/>
<path d="M340.313 164.796C333.822 167.293 327.929 171.688 320.339 179.578C313.548 186.469 307.056 195.457 303.96 201.949C302.262 205.545 302.162 205.644 294.572 206.244C273.199 208.241 254.622 215.132 237.245 227.616C216.97 242.098 187.108 277.353 183.014 291.535C181.016 298.127 181.915 303.021 186.209 309.812C197.295 327.489 220.965 340.673 245.634 343.169L252.325 343.769L249.429 348.962C247.831 351.858 245.834 356.253 245.035 358.75L243.437 363.444L237.245 364.043C233.849 364.442 227.557 365.641 223.362 366.839C195.298 374.23 179.818 401.595 197.695 412.082C200.491 413.78 202.888 414.079 212.077 414.079C218.169 414.079 226.358 413.78 230.253 413.28L237.544 412.581L236.346 415.278C235.647 416.976 235.147 423.567 235.147 432.056C235.147 444.041 235.447 446.937 237.444 452.53C238.643 456.126 241.04 460.72 242.738 462.817C244.336 464.915 245.534 466.712 245.434 466.912C245.234 467.012 242.138 468.21 238.543 469.509C230.953 472.205 225.959 475.201 221.265 479.796C211.378 489.783 211.877 503.765 222.264 507.66C225.46 508.859 238.843 508.959 308.953 508.459L391.848 507.76L401.835 505.163C424.406 499.271 438.189 491.68 452.371 477.598C470.248 459.621 479.237 438.149 479.237 413.38C479.237 401.196 478.038 393.206 474.642 381.221C471.147 369.336 471.546 361.346 475.841 356.053C481.334 349.262 483.232 348.363 493.718 347.664C506.002 346.865 509.998 344.368 515.191 334.281C518.587 327.589 518.686 326.99 518.686 316.304C518.686 302.721 516.389 295.23 508.999 284.244C501.309 272.559 490.522 264.27 476.44 258.977C467.452 255.581 448.975 254.682 439.287 257.179C413.121 263.87 394.245 285.543 387.753 316.104C386.055 323.994 385.855 345.766 387.354 352.158C387.853 354.355 388.053 356.253 387.953 356.453C387.753 356.552 386.055 354.555 384.158 351.958C382.26 349.362 374.07 339.374 365.981 329.886C357.991 320.398 351.399 312.508 351.399 312.309C351.399 312.109 353.097 309.313 355.294 306.117C359.888 299.026 363.784 289.538 365.382 281.048C367.179 272.06 366.18 254.183 363.484 244.195L361.287 236.106L364.283 227.616C370.874 208.641 373.771 185.67 370.475 176.581C368.777 171.588 363.784 165.995 359.689 164.297C355.194 162.399 345.806 162.599 340.313 164.796Z" fill="#B07329"/>
</svg>