<svg width="19" height="19" viewBox="0 0 19 19" fill="none" xmlns="http://www.w3.org/2000/svg">
<g clip-path="url(#clip0_353_2429)">
<path d="M14.9241 14.0981L16.1397 7.20303C16.1934 6.89802 15.8671 6.668 15.5979 6.82192L13.3263 8.1207C12.692 8.48341 11.885 8.28498 11.4909 7.66974L9.49597 4.55583C9.35023 4.32864 9.01743 4.33184 8.87654 4.56179L6.94187 7.71352C6.55971 8.33623 5.75666 8.54969 5.11551 8.19971L2.81933 6.94488C2.54724 6.79616 2.22537 7.03197 2.28499 7.33634L3.63305 14.2068" fill="#FFCD00"/>
<path d="M14.2213 16.2768L4.37712 16.3715C3.94284 16.3757 3.65068 16.0891 3.6465 15.6548L3.63257 14.207L14.9241 14.0984L14.938 15.5462C14.9415 15.9082 14.6556 16.2726 14.2213 16.2768Z" fill="#FFAD00"/>
<path d="M9.18438 4.38728C9.8239 4.38112 10.3373 3.8577 10.3312 3.21819C10.325 2.57867 9.80162 2.06522 9.1621 2.07138C8.52258 2.07753 8.00914 2.60095 8.01529 3.24047C8.02145 3.87999 8.54487 4.39343 9.18438 4.38728Z" fill="#FFAD00"/>
<path d="M16.7388 7.13142C17.3783 7.12526 17.8918 6.60184 17.8856 5.96233C17.8795 5.32281 17.3561 4.80936 16.7165 4.81552C16.077 4.82167 15.5636 5.34509 15.5697 5.98461C15.5759 6.62413 16.0993 7.13757 16.7388 7.13142Z" fill="#FFAD00"/>
<path d="M1.68365 7.27595C2.32317 7.26979 2.83661 6.74637 2.83046 6.10686C2.82431 5.46734 2.30089 4.9539 1.66137 4.96005C1.02185 4.9662 0.508406 5.48962 0.51456 6.12914C0.520713 6.76866 1.04413 7.2821 1.68365 7.27595Z" fill="#FFAD00"/>
</g>
<defs>
<clipPath id="clip0_353_2429">
<rect width="18.2867" height="18.2867" fill="white" transform="translate(0 0.175781) rotate(-0.551291)"/>
</clipPath>
</defs>
</svg>
